# xmcd
#
# Track frame offsets:
# 150
# 23151
# 69870
# 90799
# 115262
#
# Disc length: 1883 seconds
#
# Revision: 0
# Processed by: cddbd v1.5.2PL0 Copyright (c) Steve Scherf et al.
# Submitted via: Audion 3.0.2 (http://www.panic.com/audion/)
#
DISCID=2d075905
DTITLE=Mark Kozelek - Schuba's Tavern Chigago 7.4.01
DYEAR=1900
DGENRE=
TTITLE0=9
TTITLE1=10
TTITLE2=11
TTITLE3=12
TTITLE4=13
EXTD=
EXTT0=
EXTT1=
EXTT2=
EXTT3=
EXTT4=
PLAYORDER=
